<svg height="512" viewBox="0 0 64 64" width="512" xmlns="http://www.w3.org/2000/svg"><g id="Elearning-book-screen-online-education"><path d="m61 35h-58v-30a2 2 0 0 1 2-2h54a2 2 0 0 1 2 2z" fill="#e9e9ea"/><path d="m6 6h52v26h-52z" fill="#2488ff"/><path d="m30.528 17h8.944v2h-8.944z" fill="#57565c" transform="matrix(.447 -.894 .894 .447 3.248 41.255)"/><path d="m61 35v2a2.006 2.006 0 0 1 -2 2h-54a2.006 2.006 0 0 1 -2-2v-2z" fill="#acabb1"/><path d="m49.95 55.88-.12.12-.59.59-4.24 1.41 1.41-4.24.71-.71z" fill="#3e3d42"/><path d="m59.85 43.15a2 2 0 0 1 0 2.83l-1.51 1.51-2.83-2.83 1.51-1.51a1.992 1.992 0 0 1 2.83 0z" fill="#e9e9ea"/><path d="m46.797 48.269h11.865v4.002h-11.865z" fill="#64c37d" transform="matrix(.707 -.707 .707 .707 -20.102 52.009)"/><path d="m3 35h38v26h-38z" fill="#d80027"/><path d="m22 43v15h-16v-20h12a4 4 0 0 1 4 4z" fill="#fff"/><path d="m22 58v-16a4 4 0 0 1 4-4h12v20z" fill="#e9e9ea"/><path d="m33.1 20.8a1.5 1.5 0 0 1 .38.19 1.9 1.9 0 0 1 .85 1.59 1.871 1.871 0 0 1 -.27.99l-1.33 2.22-3.31-2.47 1.49-1.92a1.889 1.889 0 0 1 2.19-.6z" fill="#f5e0cd"/><path d="m20.29 22.44.71 3.56h-6l.71-3.56a4.962 4.962 0 0 0 4.58 0z" fill="#f0d0b4"/><path d="m21 26-3 4-3-4z" fill="#fff"/><path d="m18 30 3-4h3l2.14 1.53 3.28-4.21 3.31 2.47-3.73 6.21h-20v-2a4 4 0 0 1 4-4h2z" fill="#3e3d42"/><path d="m23 14h-13a5 5 0 0 1 5-5 4.949 4.949 0 0 1 3.1 1.11 3.824 3.824 0 0 1 .9-.11 4 4 0 0 1 4 4z" fill="#6a563d"/><path d="m13 14h10a0 0 0 0 1 0 0v4a5 5 0 0 1 -5 5 5 5 0 0 1 -5-5v-4a0 0 0 0 1 0 0z" fill="#f5e0cd"/><g fill="#1a6fb0"><path d="m25 41h10v2h-10z"/><path d="m25 45h10v2h-10z"/><path d="m25 49h10v2h-10z"/><path d="m25 53h10v2h-10z"/><path d="m9 41h10v2h-10z"/><path d="m9 45h10v2h-10z"/><path d="m9 49h10v2h-10z"/><path d="m9 53h10v2h-10z"/></g><path d="m38 9h8v2h-8z" fill="#ffda44"/><path d="m48 9h6v2h-6z" fill="#ffda44"/><path d="m38 13h4v2h-4z" fill="#ffda44"/><path d="m44 13h10v2h-10z" fill="#ffda44"/><path d="m38 17h6v2h-6z" fill="#ffda44"/><path d="m46 17h8v2h-8z" fill="#ffda44"/><path d="m38 21h16v2h-16z" fill="#ffda44"/><path d="m38 25h16v2h-16z" fill="#ffda44"/></g></svg>